<svg xmlns="http://www.w3.org/2000/svg" viewBox="0 0 100 100">
  <!-- 松果 - 系统吉祥物 -->
  <ellipse cx="50" cy="55" rx="25" ry="35" fill="#639922"/>
  <!-- 松果鳞片 -->
  <path d="M 30 40 Q 50 35 70 40" stroke="#B8E0D2" stroke-width="1.5" fill="none"/>
  <path d="M 28 48 Q 50 43 72 48" stroke="#B8E0D2" stroke-width="1.5" fill="none"/>
  <path d="M 27 56 Q 50 51 73 56" stroke="#B8E0D2" stroke-width="1.5" fill="none"/>
  <path d="M 28 64 Q 50 59 72 64" stroke="#B8E0D2" stroke-width="1.5" fill="none"/>
  <path d="M 30 72 Q 50 67 70 72" stroke="#B8E0D2" stroke-width="1.5" fill="none"/>
  <!-- 叶子 -->
  <path d="M 50 20 Q 45 12 40 15 Q 45 20 50 20" fill="#FFB38A"/>
  <path d="M 50 20 Q 55 12 60 15 Q 55 20 50 20" fill="#FFB38A"/>
  <line x1="50" y1="20" x2="50" y2="25" stroke="#639922" stroke-width="2"/>
  <!-- 气泡 -->
  <circle cx="72" cy="35" r="10" fill="#B8E0D2" opacity="0.5"/>
  <circle cx="78" cy="45" r="5" fill="#B8E0D2" opacity="0.3"/>
</svg>
